<?xml version="1.0" standalone="no"?>
<!DOCTYPE svg PUBLIC "-//W3C//DTD SVG 20010904//EN"
 "http://www.w3.org/TR/2001/REC-SVG-20010904/DTD/svg10.dtd">
<svg version="1.0" xmlns="http://www.w3.org/2000/svg"
 width="2000.000000pt" height="1333.000000pt" viewBox="0 0 2000.000000 1333.000000"
 preserveAspectRatio="xMidYMid meet">

<g transform="translate(0.000000,1333.000000) scale(0.100000,-0.100000)"
fill="#000000" stroke="none">
<path d="M0 6665 l0 -6665 10000 0 10000 0 0 6665 0 6665 -10000 0 -10000 0 0
-6665z m11883 4026 c2 -10 1 -24 -3 -30 -4 -7 -7 1 -8 18 -1 35 3 40 11 12z
m367 -336 c-14 -17 -30 -20 -30 -4 0 5 4 8 9 4 5 -3 12 -1 16 5 3 5 9 10 12
10 3 0 0 -7 -7 -15z m56 -33 c-4 -3 -11 0 -16 8 -15 24 -11 33 6 15 9 -9 13
-19 10 -23z m17 -32 c-5 -19 -23 -29 -23 -12 0 7 20 32 26 32 1 0 0 -9 -3 -20z
m-53 -40 c0 -5 -5 -10 -11 -10 -5 0 -7 5 -4 10 3 6 8 10 11 10 2 0 4 -4 4 -10z
m85 0 c3 -5 2 -10 -4 -10 -5 0 -13 5 -16 10 -3 6 -2 10 4 10 5 0 13 -4 16 -10z
m-88 -112 c-3 -7 -5 -2 -5 12 0 14 2 19 5 13 2 -7 2 -19 0 -25z m44 14 c-7 -2
-18 1 -23 6 -8 8 -4 9 13 5 13 -4 18 -8 10 -11z m-77 -47 c-4 -8 -8 -15 -10
-15 -2 0 -4 7 -4 15 0 8 4 15 10 15 5 0 7 -7 4 -15z m-171 -8 c3 -8 2 -20 -3
-26 -5 -9 -7 -4 -7 13 0 29 2 32 10 13z m206 -34 c-6 -7 -15 -10 -20 -7 -13 8
-3 21 15 21 12 0 13 -4 5 -14z m173 -31 c19 8 21 -27 2 -42 -7 -7 -11 -17 -7
-24 3 -6 0 -5 -8 2 -12 11 -11 15 4 26 9 7 17 17 17 21 0 5 -3 5 -7 2 -8 -9
-33 12 -33 27 0 6 4 5 9 -3 5 -8 15 -12 23 -9z m-62 -37 c7 -9 8 -15 2 -15 -5
0 -12 7 -16 15 -3 8 -4 15 -2 15 2 0 9 -7 16 -15z m192 -108 c22 -17 22 -17
-8 0 -40 24 -84 59 -84 68 0 4 15 -6 34 -21 19 -16 45 -37 58 -47z m-70 23
c12 -11 19 -22 16 -25 -2 -3 -15 6 -28 20 -28 30 -18 34 12 5z m-837 -20 c3
-5 1 -10 -4 -10 -6 0 -11 5 -11 10 0 6 2 10 4 10 3 0 8 -4 11 -10z m906 -37
c13 -17 13 -17 -6 -3 -11 8 -22 16 -24 17 -2 2 0 3 6 3 6 0 17 -8 24 -17z
m-1004 -17 c-8 -8 -17 -12 -21 -9 -3 3 2 12 12 19 22 16 29 9 9 -10z m1059 -4
c6 -15 8 -36 4 -46 -5 -16 -8 -15 -24 9 -16 24 -16 27 -2 22 21 -8 20 2 -1 25
-13 15 -13 18 -2 18 8 0 19 -13 25 -28z m23 -115 c1 -4 -5 -2 -13 5 -7 7 -11
19 -8 27 4 11 7 10 13 -5 4 -10 8 -23 8 -27z m0 -79 c-1 -7 -5 -24 -9 -38 -7
-22 -8 -21 -9 13 -1 20 4 37 9 37 6 0 10 -6 9 -12z m-22 -100 c-3 -8 -6 -5 -6
6 -1 11 2 17 5 13 3 -3 4 -12 1 -19z m-3227 -1192 c0 -2 -8 -10 -17 -17 -16
-13 -17 -12 -4 4 13 16 21 21 21 13z m-116 -141 c-4 -8 -11 -15 -16 -15 -6 0
-5 6 2 15 7 8 14 15 16 15 2 0 1 -7 -2 -15z m-54 -80 c0 -8 -4 -15 -10 -15 -5
0 -7 7 -4 15 4 8 8 15 10 15 2 0 4 -7 4 -15z m-64 -113 c-18 -16 -18 -16 -6 6
6 13 14 21 18 18 3 -4 -2 -14 -12 -24z m-19 -44 c-3 -8 -6 -5 -6 6 -1 11 2 17
5 13 3 -3 4 -12 1 -19z m-36 -85 c-12 -20 -14 -14 -5 12 4 9 9 14 11 11 3 -2
0 -13 -6 -23z m-5 -39 c-4 -9 -11 -36 -17 -60 -6 -24 -16 -44 -21 -44 -5 0 -8
6 -6 13 2 6 10 33 18 60 8 26 18 47 23 47 5 0 6 -7 3 -16z m-39 -129 c0 -8 -4
-12 -9 -9 -5 3 -6 10 -3 15 9 13 12 11 12 -6z m2198 -64 c-3 -6 -11 -11 -16
-11 -5 0 -4 6 3 14 14 16 24 13 13 -3z m-2228 -63 c-3 -8 -6 -5 -6 6 -1 11 2
17 5 13 3 -3 4 -12 1 -19z m-20 -57 c0 -11 -5 -18 -9 -15 -4 3 -5 11 -1 19 7
21 12 19 10 -4z m-12 -61 c-4 -12 -9 -19 -12 -17 -3 3 -2 15 2 27 4 12 9 19
12 17 3 -3 2 -15 -2 -27z m-20 -77 c-8 -27 -15 -50 -15 -52 0 -2 -2 -2 -5 1
-3 2 0 20 6 39 6 19 12 40 15 47 2 6 6 12 8 12 3 0 -1 -21 -9 -47z m2002 22
c-15 -16 -19 -13 -11 9 3 9 10 13 15 10 5 -3 3 -11 -4 -19z m598 -94 c5 -17 4
-22 -6 -19 -8 3 -15 18 -17 34 -4 33 11 24 23 -15z m-2621 3 c-6 -3 -9 -16 -6
-29 2 -14 0 -25 -6 -25 -8 0 -10 32 -3 58 1 1 7 2 14 1 8 0 8 -2 1 -5z m2500
-41 c-4 -16 -11 -32 -16 -38 -9 -9 -1 39 9 58 9 16 13 5 7 -20z m-679 -3 c-3
-5 -14 -10 -23 -9 -14 0 -13 2 3 9 27 11 27 11 20 0z m-1878 -94 c-3 -8 -9
-32 -13 -53 -8 -43 -42 -128 -49 -121 -2 2 4 26 14 54 10 27 17 57 16 67 -2 9
1 17 7 17 6 0 7 7 4 16 -7 18 0 34 16 34 5 0 8 -6 5 -14z m1583 -111 c-14 -17
-30 -20 -30 -4 0 5 5 7 10 4 6 -3 10 -1 10 4 0 6 5 11 11 11 8 0 8 -5 -1 -15z
m-52 -53 c2 -7 -3 -12 -10 -12 -8 0 -15 7 -15 15 0 18 19 15 25 -3z m-1603
-42 c-4 -11 -1 -54 6 -95 10 -64 16 -78 45 -105 18 -16 38 -30 43 -30 5 0 7
-9 4 -20 -7 -26 -11 -25 -46 8 -26 24 -28 24 -18 5 10 -19 9 -23 -4 -23 -9 0
-14 4 -11 9 3 4 -1 17 -9 27 -8 10 -15 27 -15 37 0 10 -4 16 -9 13 -5 -3 -9 9
-9 27 1 79 -2 108 -13 101 -7 -4 -7 2 1 17 25 47 47 65 35 29z m861 -12 c-9
-13 -25 -42 -35 -64 -11 -23 -25 -45 -31 -49 -8 -5 -9 -2 -1 11 5 11 12 32 16
47 3 16 17 40 30 53 30 30 43 31 21 2z m619 2 c-3 -5 -12 -10 -18 -10 -7 0 -6
4 3 10 19 12 23 12 15 0z m7379 -6 c19 -18 22 -123 6 -191 -8 -36 -209 -586
-300 -823 -16 -41 -46 -120 -65 -175 -38 -104 -125 -335 -175 -465 -16 -41
-126 -331 -244 -645 -403 -1071 -454 -1204 -483 -1257 -15 -29 -53 -78 -83
-108 -49 -49 -72 -62 -206 -118 l-151 -63 -7 -56 c-3 -30 -12 -65 -18 -76 -6
-12 -11 -40 -10 -62 1 -22 -5 -51 -13 -65 -8 -14 -14 -19 -15 -12 0 6 -3 12
-7 12 -5 0 -7 -30 -6 -67 1 -72 -6 -99 -18 -67 -5 12 -8 -3 -8 -41 -1 -55 -13
-112 -55 -255 -17 -57 -66 -302 -86 -427 -8 -51 -16 -73 -26 -73 -16 0 -19 16
-5 24 5 3 11 15 14 26 5 19 2 21 -25 15 -23 -6 -29 -4 -25 6 2 8 10 13 17 11
11 -3 11 0 0 13 -11 13 -10 18 3 33 12 13 13 22 5 36 -8 14 -7 17 1 12 6 -4
11 -6 12 -4 0 2 2 32 5 68 3 36 8 72 11 80 9 23 22 78 44 200 7 36 16 71 22
78 7 9 4 12 -12 12 -12 0 -19 5 -16 10 3 6 1 10 -4 10 -6 0 5 16 24 36 39 40
45 79 20 118 -9 13 -15 28 -14 32 1 5 0 14 -1 19 -6 23 -4 50 3 56 5 4 2 20
-7 36 -8 17 -12 33 -9 36 3 4 0 13 -6 21 -8 10 -9 16 -1 21 6 3 8 11 4 16 -3
5 -10 7 -15 4 -5 -3 -6 1 -2 10 4 12 8 13 13 5 5 -7 9 -2 12 13 3 14 1 31 -3
38 -4 7 -5 35 -2 61 4 34 2 48 -6 48 -8 0 -10 8 -6 21 5 14 3 19 -3 15 -6 -3
-8 1 -6 11 2 10 5 36 7 58 2 22 6 45 10 51 4 7 -2 14 -14 17 -18 5 -20 10 -14
34 11 43 12 327 1 335 -6 4 -22 -2 -36 -12 -26 -19 -27 -19 -24 3 1 12 3 22 4
22 1 0 4 15 7 33 3 24 -1 37 -12 46 -9 6 -17 26 -17 44 -1 29 -3 31 -17 18
-15 -14 -17 -13 -17 4 0 10 4 16 9 13 10 -6 2 74 -10 90 -5 7 -8 26 -7 42 1
17 -3 33 -8 36 -7 4 -6 14 1 27 17 32 14 47 -6 31 -15 -12 -16 -12 -10 4 5 15
4 16 -13 7 -10 -5 -20 -10 -22 -10 -6 0 -2 96 5 107 4 6 3 14 -2 18 -6 3 -9
11 -7 18 1 7 1 9 -1 5 -3 -5 -9 -8 -15 -8 -6 0 -17 -8 -24 -17 -11 -15 -11
-11 -2 24 6 24 13 41 17 39 3 -2 12 2 18 9 18 20 -13 51 -33 34 -8 -6 -14 -8
-14 -3 0 5 -7 1 -14 -9 -19 -25 -27 -7 -15 34 25 80 27 98 13 110 -11 9 -19 8
-36 -7 l-22 -19 17 27 c18 29 9 45 -21 33 -14 -5 -15 -4 -4 6 18 19 15 25 -18
39 -53 22 -103 17 -167 -16 l-60 -31 -23 34 c-35 51 -68 46 -143 -24 -80 -75
-96 -93 -165 -183 -31 -41 -67 -86 -80 -100 -13 -14 -38 -45 -55 -70 -55 -78
-68 -90 -88 -80 -47 26 -175 -13 -239 -72 -42 -39 -84 -65 -97 -61 -18 7 -8
68 32 188 97 291 168 495 205 590 4 11 26 76 48 145 23 69 69 204 102 300 34
96 97 281 140 410 43 129 103 305 133 391 30 86 63 190 72 230 10 41 28 107
42 148 15 44 23 90 21 115 -3 38 -1 42 32 58 34 16 185 49 470 102 387 72
1082 204 1355 257 402 78 708 137 717 138 4 1 14 -6 22 -15z m-7414 -14 c0 -5
-2 -10 -4 -10 -3 0 -8 5 -11 10 -3 6 -1 10 4 10 6 0 11 -4 11 -10z m-190 -24
c0 -3 -4 -8 -10 -11 -5 -3 -10 -1 -10 4 0 6 5 11 10 11 6 0 10 -2 10 -4z
m-590 -14 c0 -4 -12 -8 -27 -9 -24 -1 -25 -1 -8 7 26 11 35 12 35 2z m75 -2
c3 -5 -1 -10 -9 -10 -8 0 -18 5 -21 10 -3 6 1 10 9 10 8 0 18 -4 21 -10z
m1882 -42 c-3 -7 -5 -2 -5 12 0 14 2 19 5 13 2 -7 2 -19 0 -25z m-1997 12 c0
-5 -5 -10 -11 -10 -5 0 -7 5 -4 10 3 6 8 10 11 10 2 0 4 -4 4 -10z m-44 -7
c-8 -8 -97 -43 -109 -43 -19 0 1 25 21 26 12 1 23 2 25 4 1 1 10 3 20 5 11 2
21 6 25 9 3 3 10 6 15 6 6 0 7 -3 3 -7z m609 -51 c-8 -2 -11 -10 -8 -18 3 -8
0 -14 -6 -14 -12 0 -15 52 -4 63 3 4 12 -1 19 -11 10 -14 10 -18 -1 -20z
m-740 8 c3 -5 -1 -10 -10 -10 -9 0 -13 5 -10 10 3 6 8 10 10 10 2 0 7 -4 10
-10z m305 0 c0 -5 -4 -10 -10 -10 -5 0 -10 5 -10 10 0 6 5 10 10 10 6 0 10 -4
10 -10z m-360 -14 c0 -3 -4 -8 -10 -11 -5 -3 -10 -1 -10 4 0 6 5 11 10 11 6 0
10 -2 10 -4z m2387 -28 c-3 -7 -5 -2 -5 12 0 14 2 19 5 13 2 -7 2 -19 0 -25z
m-2470 -10 c-3 -7 -5 -2 -5 12 0 14 2 19 5 13 2 -7 2 -19 0 -25z m33 17 c0 -8
-4 -15 -10 -15 -5 0 -7 7 -4 15 4 8 8 15 10 15 2 0 4 -7 4 -15z m816 -10 c16
-12 17 -14 2 -15 -9 0 -18 -5 -20 -11 -4 -12 -38 -1 -38 13 0 6 7 7 16 4 12
-4 15 -2 10 9 -7 19 5 19 30 0z m-1327 -71 c-14 -78 -18 -547 -6 -687 6 -71 4
-91 -7 -103 -13 -12 -14 -10 -9 20 3 21 -1 46 -11 66 -14 29 -14 31 1 19 14
-12 15 -11 10 6 -6 19 -20 159 -18 180 0 6 3 91 5 190 5 216 13 320 28 358 17
44 20 25 7 -49z m1591 56 c0 -5 -4 -10 -10 -10 -5 0 -10 5 -10 10 0 6 5 10 10
10 6 0 10 -4 10 -10z m-1165 -15 c-22 -7 -42 -10 -45 -8 -9 8 19 19 52 20 33
1 33 1 -7 -12z m-69 -4 c11 9 14 8 14 -2 0 -8 -22 -21 -50 -30 -28 -8 -50 -12
-50 -7 0 4 4 8 10 8 5 0 7 6 4 14 -4 10 3 16 23 18 15 2 30 -1 31 -5 2 -4 10
-3 18 4z m901 -31 c-1 -22 -7 -42 -14 -44 -6 -3 -10 -16 -9 -30 2 -14 -1 -26
-6 -26 -5 0 -6 -4 -3 -10 3 -5 15 -10 26 -10 10 0 19 -5 19 -10 0 -6 -15 -9
-32 -8 -28 3 -35 -2 -48 -29 -8 -18 -22 -33 -30 -34 -10 0 -11 -2 -2 -6 20 -8
15 -36 -5 -28 -14 5 -15 3 -6 -6 13 -13 6 -39 -11 -39 -6 0 -12 -19 -13 -42
-2 -22 -10 -49 -18 -58 -8 -9 -15 -21 -15 -27 0 -15 -28 -24 -36 -11 -4 5 0
14 7 19 11 7 9 9 -6 9 -14 0 -21 -7 -22 -21 -1 -12 1 -19 4 -15 3 3 12 1 19
-5 21 -17 -4 -97 -26 -84 -5 3 -11 -1 -13 -7 -3 -7 -6 -3 -6 10 -1 12 4 22 9
22 6 0 10 -5 10 -11 0 -5 5 -7 10 -4 16 10 12 23 -10 30 -27 9 -26 25 2 17 14
-3 19 -2 14 6 -4 7 -14 12 -21 12 -11 0 -13 8 -8 33 3 17 10 38 16 45 9 12 17
52 18 95 0 9 7 17 16 17 9 0 13 3 10 6 -4 4 0 19 8 33 8 14 20 39 26 56 8 23
12 26 19 15 8 -12 10 -9 11 10 1 14 1 28 0 33 0 4 4 7 10 7 5 0 17 16 25 35
14 35 29 45 36 24 2 -7 10 7 16 30 16 52 30 53 29 1z m1673 -54 c-17 -46 -21
-25 -7 40 11 54 12 56 15 23 2 -19 -2 -48 -8 -63z m-1630 63 c0 -5 -7 -9 -15
-9 -15 0 -20 12 -9 23 8 8 24 -1 24 -14z m462 -1 c-7 -7 -12 -8 -12 -2 0 14
12 26 19 19 2 -3 -1 -11 -7 -17z m-372 -4 c0 -17 -22 -14 -28 4 -2 7 3 12 12
12 9 0 16 -7 16 -16z m197 -16 c-3 -7 -5 -2 -5 12 0 14 2 19 5 13 2 -7 2 -19
0 -25z m-6 -61 c-10 -9 -11 -8 -5 6 3 10 9 15 12 12 3 -3 0 -11 -7 -18z m209
19 c0 -2 -7 -7 -16 -10 -8 -3 -12 -2 -9 4 6 10 25 14 25 6z m997 -88 c-3 -8
-6 -5 -6 6 -1 11 2 17 5 13 3 -3 4 -12 1 -19z m482 -143 c1 -66 -2 -150 -6
-187 -5 -56 -8 -65 -18 -51 -11 14 -13 14 -28 -8 -10 -13 -17 -29 -17 -36 0
-7 -4 -21 -10 -31 -5 -9 -21 -57 -36 -107 -14 -49 -37 -124 -49 -165 -13 -41
-28 -95 -33 -120 -6 -25 -18 -72 -28 -105 -10 -33 -18 -76 -18 -97 -1 -20 -4
-34 -8 -31 -5 2 -7 -6 -6 -19 0 -13 -10 -57 -24 -98 -14 -41 -29 -90 -33 -107
-3 -18 -11 -33 -16 -33 -5 0 -5 9 0 23 5 12 14 47 21 77 6 30 18 78 25 105 8
28 30 118 51 200 36 151 128 473 144 510 33 72 68 262 70 375 2 115 19 35 19
-95z m-492 78 c-3 -10 -5 -4 -5 12 0 17 2 24 5 18 2 -7 2 -21 0 -30z m-1186
-26 c-10 -9 -11 -8 -5 6 3 10 9 15 12 12 3 -3 0 -11 -7 -18z m13 -32 c3 -8 1
-15 -4 -15 -6 0 -10 7 -10 15 0 8 2 15 4 15 2 0 6 -7 10 -15z m1173 -47 c-3
-7 -5 -2 -5 12 0 14 2 19 5 13 2 -7 2 -19 0 -25z m-1167 -10 c0 -18 -2 -20 -9
-8 -6 8 -7 18 -5 22 9 14 14 9 14 -14z m4725 -15 c-43 -66 -58 -101 -128 -313
-77 -231 -221 -651 -282 -820 -19 -52 -82 -232 -141 -400 -58 -168 -140 -402
-181 -520 -41 -118 -99 -285 -128 -370 -79 -227 -176 -507 -325 -930 -73 -206
-156 -445 -185 -530 -73 -214 -86 -245 -96 -228 -7 11 -9 10 -9 -1 0 -8 -2
-12 -5 -9 -3 2 15 65 39 139 47 145 302 883 341 989 13 36 45 126 70 200 26
74 59 171 75 215 16 44 76 217 134 385 57 168 140 409 184 535 283 813 344
991 437 1263 98 286 146 399 164 387 5 -2 16 4 26 15 26 28 30 25 10 -7z
m-4725 -39 c0 -8 -4 -12 -10 -9 -5 3 -10 10 -10 16 0 5 5 9 10 9 6 0 10 -7 10
-16z m-893 -56 c-3 -7 -5 -2 -5 12 0 14 2 19 5 13 2 -7 2 -19 0 -25z m898 12
c3 -5 1 -10 -4 -10 -6 0 -11 5 -11 10 0 6 2 10 4 10 3 0 8 -4 11 -10z m-945
-74 c0 -3 -4 -8 -10 -11 -5 -3 -10 -1 -10 4 0 6 5 11 10 11 6 0 10 -2 10 -4z
m200 -20 c0 -11 -19 -15 -25 -6 -3 5 1 10 9 10 9 0 16 -2 16 -4z m1886 -73
c-2 -43 -5 -107 -7 -143 l-2 -65 -6 65 c-8 87 -2 220 10 220 5 0 7 -33 5 -77z
m-1996 57 c0 -5 -2 -10 -4 -10 -3 0 -8 5 -11 10 -3 6 -1 10 4 10 6 0 11 -4 11
-10z m38 -41 c-17 -10 -17 -9 -11 25 6 30 6 30 15 6 6 -16 5 -26 -4 -31z m239
15 c-3 -3 -12 -4 -19 -1 -8 3 -5 6 6 6 11 1 17 -2 13 -5z m43 -4 c0 -5 -4 -10
-9 -10 -6 0 -13 5 -16 10 -3 6 1 10 9 10 9 0 16 -4 16 -10z m548 -15 c0 -24
-8 -31 -21 -19 -4 5 13 44 19 44 1 0 2 -11 2 -25z m1632 21 c0 -3 -4 -8 -10
-11 -5 -3 -10 -1 -10 4 0 6 5 11 10 11 6 0 10 -2 10 -4z m-2430 -47 c0 -7 -32
-29 -43 -29 -3 0 0 11 6 24 10 22 37 26 37 5z m241 -2 c-10 -9 -11 -8 -5 6 3
10 9 15 12 12 3 -3 0 -11 -7 -18z m2175 -14 c-11 -11 -17 4 -9 23 7 18 8 18
11 1 2 -10 1 -21 -2 -24z m-2406 -27 c0 -7 -11 -21 -25 -30 -28 -19 -30 -17
-13 19 12 27 38 34 38 11z m197 -2 c-3 -3 -12 -4 -19 -1 -8 3 -5 6 6 6 11 1
17 -2 13 -5z m594 -61 c2 -56 5 -79 13 -91 3 -6 2 -13 -3 -17 -6 -3 -7 -13 -4
-23 4 -10 2 -13 -3 -9 -5 5 -10 36 -11 70 -1 34 -5 72 -8 85 -3 12 -1 22 5 22
5 0 11 -17 11 -37z m-767 2 c16 -24 15 -25 -3 -25 -10 0 -22 7 -25 16 -16 40
3 47 28 9z m2357 -22 c-8 -15 -10 -15 -11 -2 0 17 10 32 18 25 2 -3 -1 -13 -7
-23z m-2401 7 c0 -5 -5 -10 -11 -10 -5 0 -7 5 -4 10 3 6 8 10 11 10 2 0 4 -4
4 -10z m-27 -38 c-26 -4 -26 -3 -13 -36 7 -20 6 -24 -5 -20 -8 3 -11 12 -8 21
4 11 2 14 -5 9 -7 -4 -12 -3 -12 3 0 15 42 41 54 33 6 -4 2 -8 -11 -10z m-778
-84 c4 -24 8 -62 9 -85 0 -23 3 -44 6 -47 8 -7 3 -130 -5 -156 -3 -11 -10 -20
-15 -20 -10 0 -6 87 5 114 6 13 5 17 -3 12 -7 -4 -9 5 -5 30 4 27 3 35 -5 30
-9 -5 -9 0 -2 19 13 33 13 55 0 35 -5 -8 -12 -11 -16 -7 -4 4 -2 13 4 19 13
13 17 52 4 44 -5 -3 -6 8 -4 25 6 42 18 36 27 -13z m2732 20 c-3 -8 -6 -5 -6
6 -1 11 2 17 5 13 3 -3 4 -12 1 -19z m-1848 -53 c-9 -8 -66 -11 -84 -4 -18 7
-18 8 5 9 14 1 32 2 42 1 9 -1 20 4 24 11 6 9 9 9 12 -1 2 -7 2 -14 1 -16z
m1850 -127 c-1 -84 -5 -162 -9 -173 -8 -18 -9 -18 -10 5 -2 33 1 148 5 180 1
14 3 51 4 83 0 31 3 57 6 57 3 0 5 -69 4 -152z m-1985 99 c7 -6 6 -7 -4 -4 -8
2 -16 14 -17 28 -1 19 -1 20 4 4 3 -11 10 -24 17 -28z m-477 -29 c-3 -7 -5 -2
-5 12 0 14 2 19 5 13 2 -7 2 -19 0 -25z m553 28 c0 -11 -19 -15 -25 -6 -3 5 1
10 9 10 9 0 16 -2 16 -4z m815 -71 c3 -21 3 -36 0 -33 -4 3 -8 23 -11 44 -3
21 -2 35 1 32 3 -3 8 -22 10 -43z m561 7 c1 -11 -3 -26 -7 -34 -6 -9 -9 -4 -9
15 0 15 -4 27 -10 27 -5 0 -10 4 -10 9 0 19 35 3 36 -17z m936 -14 c-3 -24
-12 -53 -20 -65 -13 -20 -13 -23 1 -23 21 0 30 -16 22 -40 -8 -26 -21 -25 -28
1 -8 29 -30 19 -41 -19 -5 -18 -13 -32 -18 -32 -5 0 -7 3 -5 8 11 18 37 82 57
136 32 91 41 100 32 34z m-2392 22 c0 -5 -10 -10 -22 -10 -19 0 -20 2 -8 10
19 13 30 13 30 0z m-423 -22 c-3 -8 -6 -5 -6 6 -1 11 2 17 5 13 3 -3 4 -12 1
-19z m498 -11 c27 -4 26 -4 -7 -6 -21 0 -38 -6 -38 -12 0 -7 12 -10 30 -7 17
3 30 1 30 -3 0 -12 -52 -21 -63 -10 -5 5 -17 7 -26 4 -13 -4 -13 -2 2 7 9 6
17 23 17 37 0 24 2 25 13 11 6 -9 26 -19 42 -21z m15 29 c0 -2 -9 -6 -20 -9
-11 -3 -20 -1 -20 4 0 5 9 9 20 9 11 0 20 -2 20 -4z m-533 -53 c-3 -10 -5 -4
-5 12 0 17 2 24 5 18 2 -7 2 -21 0 -30z m-37 -5 c0 -19 -16 -5 -17 14 -2 18 0
20 7 8 5 -8 10 -18 10 -22z m90 2 c0 -5 -7 -7 -16 -3 -13 5 -15 2 -9 -15 5
-17 2 -22 -12 -21 -10 0 -13 3 -5 6 6 2 9 9 6 14 -7 13 15 41 27 33 5 -3 9 -9
9 -14z m-193 -22 c-3 -7 -5 -2 -5 12 0 14 2 19 5 13 2 -7 2 -19 0 -25z m120
-5 c-3 -10 -5 -4 -5 12 0 17 2 24 5 18 2 -7 2 -21 0 -30z m-44 12 c4 -8 2 -17
-3 -20 -6 -4 -10 3 -10 14 0 25 6 27 13 6z m1404 -27 c-3 -7 -5 -2 -5 12 0 14
2 19 5 13 2 -7 2 -19 0 -25z m543 22 c0 -5 -4 -10 -10 -10 -5 0 -10 5 -10 10
0 6 5 10 10 10 6 0 10 -4 10 -10z m-1923 -32 c-3 -7 -5 -2 -5 12 0 14 2 19 5
13 2 -7 2 -19 0 -25z m-70 0 c-3 -8 -6 -5 -6 6 -1 11 2 17 5 13 3 -3 4 -12 1
-19z m174 -34 c6 -8 5 -14 -4 -17 -10 -4 -14 5 -14 36 0 25 2 32 4 17 3 -14 9
-30 14 -36z m449 46 c0 -5 -4 -10 -10 -10 -5 0 -9 -6 -7 -12 1 -7 -8 -14 -20
-16 -26 -4 -28 1 -13 29 11 20 50 27 50 9z m-573 -47 c-3 -10 -5 -4 -5 12 0
17 2 24 5 18 2 -7 2 -21 0 -30z m70 -25 c-2 -13 -4 -3 -4 22 0 25 2 35 4 23 2
-13 2 -33 0 -45z m1343 31 c0 -5 -4 -9 -10 -9 -5 0 -10 7 -10 16 0 8 5 12 10
9 6 -3 10 -10 10 -16z m-1360 -21 c-1 -28 -2 -30 -11 -15 -6 10 -8 25 -5 33 9
24 16 16 16 -18z m-147 7 c4 -8 3 -16 -1 -19 -4 -3 -9 4 -9 15 -2 23 3 25 10
4z m657 -5 c0 -5 -9 -10 -20 -10 -11 0 -20 5 -20 10 0 6 9 10 20 10 11 0 20
-4 20 -10z m-782 -80 c-2 -33 -1 -60 3 -60 4 0 7 -20 7 -44 0 -25 3 -54 7 -65
3 -10 2 -22 -3 -25 -5 -3 -8 -22 -6 -43 17 -182 17 -188 0 -202 -13 -11 -16
-11 -16 1 0 8 5 19 12 26 9 9 8 15 -8 27 -13 10 -15 17 -8 22 8 6 9 24 4 58
-4 27 -5 55 -3 63 3 7 0 19 -7 27 -9 11 -10 19 -1 28 8 10 7 17 -1 25 -9 9 -9
15 0 24 8 8 9 15 1 25 -9 9 -8 17 2 29 10 13 10 17 -1 24 -7 4 -10 15 -7 24 4
9 2 25 -5 35 -8 14 -7 22 8 39 10 12 20 22 22 22 3 0 2 -27 0 -60z m370 52
c14 12 14 11 1 -9 -9 -16 -16 -19 -21 -10 -6 9 -8 8 -8 -2 0 -8 -2 -12 -5 -9
-3 3 -2 13 2 24 4 11 8 13 11 6 3 -10 7 -10 20 0z m417 -2 c-3 -5 -10 -10 -16
-10 -5 0 -9 5 -9 10 0 6 7 10 16 10 8 0 12 -4 9 -10z m847 -92 c-4 -4 -8 19
-9 50 l-1 57 8 -50 c5 -27 6 -53 2 -57z m538 92 c0 -5 -5 -10 -11 -10 -5 0 -7
5 -4 10 3 6 8 10 11 10 2 0 4 -4 4 -10z m-1390 -30 c0 -5 -4 -10 -10 -10 -5 0
-10 5 -10 10 0 6 5 10 10 10 6 0 10 -4 10 -10z m-553 -22 c-3 -8 -6 -5 -6 6
-1 11 2 17 5 13 3 -3 4 -12 1 -19z m90 6 c-3 -3 -12 -4 -19 -1 -8 3 -5 6 6 6
11 1 17 -2 13 -5z m35 -34 c5 0 8 6 5 13 -3 8 4 14 19 15 13 1 24 -3 24 -8 0
-6 -6 -9 -12 -7 -8 1 -12 -6 -10 -18 2 -16 1 -17 -7 -5 -6 8 -11 10 -11 5 0
-6 -11 -11 -25 -11 -14 0 -25 6 -25 14 0 7 5 10 10 7 6 -3 11 2 11 12 1 17 2
17 6 1 2 -10 9 -18 15 -18z m438 20 c0 -5 -13 -10 -30 -10 -16 0 -30 5 -30 10
0 6 14 10 30 10 17 0 30 -4 30 -10z m-370 -20 c0 -13 -6 -20 -17 -19 -11 0
-13 3 -5 6 6 2 12 11 12 19 0 8 2 14 5 14 3 0 5 -9 5 -20z m-281 -17 c0 -25
-1 -25 -8 -8 -5 11 -7 23 -4 28 8 14 13 7 12 -20z m74 7 c3 -11 1 -23 -4 -26
-5 -3 -9 6 -9 20 0 31 6 34 13 6z m78 1 c-11 -7 -11 -10 0 -15 11 -5 11 -7 2
-12 -7 -3 -13 -12 -13 -20 0 -9 5 -12 10 -9 6 4 10 -7 10 -24 0 -17 4 -31 9
-31 4 0 6 11 4 24 -3 14 1 33 8 43 15 19 59 29 59 13 0 -9 -14 -14 -32 -11 -5
0 -8 -6 -8 -15 0 -8 -4 -12 -10 -9 -15 9 -12 -8 5 -31 21 -28 18 -34 -17 -34
l-31 0 21 -23 c12 -13 22 -36 22 -52 0 -27 0 -28 20 -10 19 18 20 17 20 -3 0
-11 -6 -22 -12 -25 -10 -3 -10 -7 0 -20 12 -14 11 -16 -7 -12 -12 2 -21 0 -21
-6 0 -5 7 -9 15 -9 19 0 19 -39 0 -64 -8 -11 -15 -34 -15 -50 0 -22 3 -27 9
-17 6 9 11 -3 16 -38 4 -29 4 -55 1 -58 -3 -4 -6 8 -6 25 0 42 -19 51 -27 12
-4 -22 -8 -28 -14 -18 -7 10 -9 10 -10 -2 -1 -24 -18 22 -18 50 0 25 0 25 9 3
13 -33 16 -29 12 22 -2 25 0 45 5 45 5 0 9 9 9 20 0 25 -13 26 -19 3 -3 -13
-5 -11 -7 7 -1 23 -2 23 -10 5 -6 -15 -9 -6 -9 34 -1 49 1 53 20 48 13 -3 19
-1 16 6 -2 7 -9 13 -15 13 -7 1 -16 2 -22 3 -5 0 -10 10 -10 21 0 11 5 20 10
20 6 0 10 14 10 31 0 16 -4 28 -9 25 -5 -3 -7 -14 -4 -24 3 -12 -1 -19 -11
-19 -20 0 -20 11 0 42 14 22 15 25 1 25 -8 0 -18 -6 -20 -12 -3 -7 -5 5 -5 27
0 34 1 36 8 15 8 -24 8 -24 9 7 1 17 6 35 11 38 6 3 10 17 10 30 0 13 6 25 13
28 18 6 24 -3 8 -12z m2859 -1 c0 -11 -2 -20 -4 -20 -2 0 -6 9 -9 20 -3 11 -1
20 4 20 5 0 9 -9 9 -20z m-2376 -2 c-3 -4 -9 -8 -15 -8 -5 0 -9 4 -9 8 0 5 7
9 15 9 8 0 12 -4 9 -9z m1919 -49 c-5 -5 -8 3 -7 19 2 43 7 50 11 18 3 -16 1
-32 -4 -37z m-2436 29 c-3 -8 -6 -5 -6 6 -1 11 2 17 5 13 3 -3 4 -12 1 -19z
m198 -52 c13 18 14 18 12 -4 -1 -20 -6 -23 -28 -20 -19 3 -25 0 -22 -9 3 -7
16 -13 29 -13 13 0 24 -5 24 -11 0 -8 -14 -10 -45 -6 -36 5 -46 3 -54 -11 -6
-11 -6 -24 0 -33 6 -10 9 -6 10 16 1 29 1 30 9 5 5 -17 8 -19 9 -7 1 11 9 17
26 17 23 0 24 -3 22 -44 -2 -25 -8 -51 -14 -58 -6 -7 -13 -24 -16 -38 -3 -17
-5 -14 -4 10 0 20 -3 41 -7 48 -4 7 -2 19 4 27 10 12 9 15 -4 15 -10 0 -16 -8
-16 -22 0 -23 -1 -23 -13 2 -8 14 -19 24 -25 23 -17 -4 -15 16 3 34 8 8 13 19
10 24 -3 5 -1 19 6 31 9 19 9 21 -2 11 -21 -21 -28 -15 -16 12 14 30 31 27 34
-6 0 -13 2 -28 2 -34 1 -5 7 1 14 15 21 41 28 62 17 55 -14 -9 -12 3 3 19 10
11 13 6 15 -26 3 -37 4 -39 17 -22z m-218 22 c-3 -8 -6 -5 -6 6 -1 11 2 17 5
13 3 -3 4 -12 1 -19z m-50 -25 c-3 -10 -5 -4 -5 12 0 17 2 24 5 18 2 -7 2 -21
0 -30z m3280 15 c-3 -8 -6 -5 -6 6 -1 11 2 17 5 13 3 -3 4 -12 1 -19z m-317 5
c0 -5 -5 -15 -10 -23 -8 -12 -10 -11 -10 8 0 12 5 22 10 22 6 0 10 -3 10 -7z
m-3033 -25 c-3 -8 -6 -5 -6 6 -1 11 2 17 5 13 3 -3 4 -12 1 -19z m1538 -46 c2
-30 7 -58 11 -63 9 -14 -6 -10 -23 6 -12 12 -12 19 -3 30 6 8 8 20 4 26 -10
17 -14 73 -3 62 4 -4 11 -32 14 -61z m1041 42 c-3 -9 -6 -40 -6 -70 0 -30 -4
-54 -9 -54 -4 0 -7 24 -5 53 2 28 3 60 4 70 0 9 5 17 11 17 6 0 8 -7 5 -16z
m-2039 -36 c-3 -7 -5 -2 -5 12 0 14 2 19 5 13 2 -7 2 -19 0 -25z m2833 -3 c13
-33 18 -86 25 -265 3 -80 9 -153 12 -164 3 -10 -1 -22 -8 -27 -11 -7 -10 -9 4
-9 9 0 17 -4 17 -10 0 -10 -13 -14 -35 -11 -14 1 -17 -37 -4 -45 6 -4 6 -11
-1 -19 -7 -8 -13 -26 -15 -41 -1 -14 -9 -30 -16 -35 -11 -7 -10 -13 8 -27 13
-9 26 -32 29 -49 6 -29 4 -33 -16 -33 -13 0 -20 5 -17 13 2 6 -6 32 -18 57
-12 25 -25 57 -29 72 -3 16 -10 27 -14 27 -30 -5 -43 2 -37 21 5 15 3 18 -9
14 -9 -3 -16 -1 -16 5 0 6 11 11 25 11 20 0 25 6 31 37 5 25 3 38 -5 41 -16 5
-14 29 5 36 8 3 13 10 10 15 -4 5 0 29 8 53 11 31 14 83 13 183 -2 128 -1 140
16 137 11 -2 17 4 17 18 0 27 8 25 20 -5z m-3293 -27 c-3 -8 -6 -5 -6 6 -1 11
2 17 5 13 3 -3 4 -12 1 -19z m33 -15 c0 -26 -16 -12 -18 15 -1 21 0 23 8 12 5
-8 10 -21 10 -27z m-50 5 c0 -19 -2 -20 -10 -8 -13 19 -13 30 0 30 6 0 10 -10
10 -22z m287 -50 c-3 -8 -6 -5 -6 6 -1 11 2 17 5 13 3 -3 4 -12 1 -19z m1683
18 c0 -3 -4 -8 -10 -11 -5 -3 -10 -1 -10 4 0 6 5 11 10 11 6 0 10 -2 10 -4z
m-490 -32 c0 -8 -4 -12 -10 -9 -5 3 -10 10 -10 16 0 5 5 9 10 9 6 0 10 -7 10
-16z m-1553 -31 c-3 -10 -5 -4 -5 12 0 17 2 24 5 18 2 -7 2 -21 0 -30z m122
-7 c-1 -27 -3 -33 -6 -16 -3 14 -9 29 -14 35 -13 13 -11 22 6 22 11 0 15 -11
14 -41z m258 22 c-3 -8 -6 -5 -6 6 -1 11 2 17 5 13 3 -3 4 -12 1 -19z m-330
-40 c-2 -13 -4 -5 -4 17 -1 22 1 32 4 23 2 -10 2 -28 0 -40z m90 -25 c-2 -16
-4 -3 -4 27 0 30 2 43 4 28 2 -16 2 -40 0 -55z m2430 45 c-3 -8 -6 -5 -6 6 -1
11 2 17 5 13 3 -3 4 -12 1 -19z m-2219 -23 c0 -25 -1 -25 -15 -5 -8 11 -11 25
-8 30 10 16 23 3 23 -25z m2439 3 c-3 -7 -5 -2 -5 12 0 14 2 19 5 13 2 -7 2
-19 0 -25z m-1227 -11 c0 -5 -4 -5 -10 -2 -5 3 -10 14 -10 23 0 15 2 15 10 2
5 -8 10 -19 10 -23z m-1533 1 c-3 -8 -6 -5 -6 6 -1 11 2 17 5 13 3 -3 4 -12 1
-19z m2533 -112 c-9 -8 -11 5 -7 54 7 85 10 88 14 16 3 -36 0 -63 -7 -70z
m-2270 98 c0 -2 -7 -4 -15 -4 -8 0 -15 4 -15 10 0 5 7 7 15 4 8 -4 15 -8 15
-10z m40 -19 c0 -16 -6 -25 -15 -25 -8 0 -15 5 -15 10 0 6 5 10 10 10 6 0 10
7 10 15 0 8 2 15 5 15 3 0 5 -11 5 -25z m-273 -32 c-4 -3 -7 -1 -7 7 0 9 -4 9
-12 2 -10 -8 -13 -4 -14 13 -2 24 -2 24 19 4 11 -10 17 -22 14 -26z m40 25
c-3 -8 -6 -5 -6 6 -1 11 2 17 5 13 3 -3 4 -12 1 -19z m1463 -4 c0 -8 -4 -12
-10 -9 -5 3 -10 10 -10 16 0 5 5 9 10 9 6 0 10 -7 10 -16z m-1293 -35 c-6 -10
-14 -16 -18 -13 -4 2 -10 -2 -13 -8 -3 -7 -4 -4 -3 7 2 11 9 19 15 18 7 -2 12
7 12 20 0 17 2 19 9 8 6 -9 5 -21 -2 -32z m-190 9 c-3 -8 -6 -5 -6 6 -1 11 2
17 5 13 3 -3 4 -12 1 -19z m310 10 c-2 -7 2 -28 10 -45 7 -18 9 -33 4 -33 -5
0 -12 7 -15 16 -4 9 -13 14 -21 10 -8 -3 -15 -1 -15 4 0 6 7 10 15 10 8 0 15
5 15 10 0 17 -38 11 -43 -7 -4 -14 -5 -12 -6 5 -1 13 5 22 14 22 8 0 15 5 15
10 0 6 7 10 16 10 9 0 14 -6 11 -12z m2373 -43 c0 -17 -2 -17 -10 -5 -5 8 -10
24 -10 35 0 17 2 17 10 5 5 -8 10 -24 10 -35z m-2631 12 c0 -9 -2 -9 -5 0 -3
7 -13 9 -22 6 -14 -4 -14 -3 -2 5 16 12 30 7 29 -11z m188 -8 c1 -13 0 -18 -3
-11 -3 6 -10 10 -15 6 -5 -3 -9 0 -9 5 0 6 6 11 13 11 8 0 7 4 -3 11 -13 9
-13 10 0 6 8 -2 16 -14 17 -28z m-360 -11 c-3 -7 -5 -2 -5 12 0 14 2 19 5 13
2 -7 2 -19 0 -25z m106 -13 c4 -27 3 -35 -3 -25 -5 8 -10 28 -10 44 0 39 6 30
13 -19z m1507 24 c0 -5 -4 -9 -10 -9 -5 0 -10 7 -10 16 0 8 5 12 10 9 6 -3 10
-10 10 -16z m-1457 -54 c3 -22 3 -34 0 -27 -4 10 -8 10 -21 0 -14 -10 -15 -10
-4 2 6 8 11 28 11 45 l-1 30 -8 -30 c-7 -29 -8 -29 -9 -4 -1 28 9 44 20 32 3
-5 9 -26 12 -48z m-188 -77 c3 -59 8 -119 10 -135 2 -15 6 -91 10 -168 11
-257 14 -309 25 -450 6 -77 15 -158 20 -180 11 -47 13 -91 4 -82 -7 6 -12 32
-19 95 -2 18 -6 50 -10 70 -3 20 -8 74 -10 120 -2 46 -7 87 -10 93 -6 8 -15
181 -19 331 0 25 -5 44 -10 41 -4 -3 -5 5 -1 18 9 28 7 127 -2 143 -4 6 -6 21
-4 34 1 12 -2 22 -8 22 -6 0 -11 5 -11 11 0 5 5 7 10 4 6 -4 10 7 10 25 0 17
-4 29 -9 25 -5 -3 -13 0 -17 6 -4 7 -3 9 3 6 6 -4 13 4 15 18 3 13 1 22 -3 19
-11 -6 -11 2 -3 34 12 44 23 7 29 -100z m216 57 c-7 -49 -7 -49 -13 -15 -3 19
0 42 6 52 14 23 14 21 7 -37z m1424 25 c3 -5 1 -10 -4 -10 -6 0 -11 5 -11 10
0 6 2 10 4 10 3 0 8 -4 11 -10z m-1298 -37 c-3 -10 -5 -4 -5 12 0 17 2 24 5
18 2 -7 2 -21 0 -30z m43 7 c5 0 11 8 13 18 3 10 5 6 6 -11 1 -19 -3 -26 -11
-21 -8 5 -9 2 -5 -9 3 -10 2 -17 -3 -17 -6 0 -10 -10 -11 -22 0 -22 -1 -22 -9
-3 -5 12 -9 14 -9 6 -1 -8 -4 -11 -7 -8 -4 4 1 18 10 31 9 14 16 29 16 33 0 4
-5 1 -10 -7 -7 -11 -10 -8 -10 15 1 25 2 27 11 13 5 -10 14 -18 19 -18z m56
-36 c-12 -11 -16 -12 -16 -2 0 10 -3 9 -11 -2 -11 -16 -11 -14 12 38 l14 33 8
-25 c6 -19 4 -30 -7 -42z m57 42 c4 -10 1 -13 -8 -9 -8 3 -12 9 -9 14 7 12 11
11 17 -5z m2317 -16 c0 -16 -4 -30 -10 -30 -5 0 -10 6 -10 14 0 8 -3 21 -6 30
-4 11 -1 16 10 16 11 0 16 -9 16 -30z m-2577 -5 c4 -8 2 -17 -3 -20 -6 -4 -10
3 -10 14 0 25 6 27 13 6z m1407 -32 c0 -25 -3 -44 -6 -41 -10 10 -13 88 -4 88
6 0 10 -21 10 -47z m-1408 -47 c4 3 8 0 8 -5 0 -17 -11 -13 -36 15 -13 14 -24
35 -24 47 0 17 6 12 22 -20 12 -23 25 -40 30 -37z m77 -2 c1 -20 -5 -34 -14
-38 -17 -6 -21 9 -5 19 7 4 9 26 6 53 -4 34 -3 40 3 22 5 -14 9 -39 10 -56z
m2316 36 c-2 -4 -7 -51 -10 -106 -9 -141 -11 -153 -19 -161 -8 -9 2 220 13
292 1 6 5 3 10 -5 6 -8 8 -17 6 -20z m-2178 6 c-3 -8 -1 -17 6 -20 7 -2 0 -5
-15 -5 -27 -1 -27 0 -10 18 21 24 26 25 19 7z m-179 -81 c1 -25 -1 -27 -8 -10
-8 19 -9 18 -9 -4 -1 -13 -3 -22 -6 -19 -3 3 -2 32 2 64 6 51 8 55 14 29 4
-16 7 -43 7 -60z m-171 43 c-3 -8 -6 -5 -6 6 -1 11 2 17 5 13 3 -3 4 -12 1
-19z m190 -10 c-3 -8 -6 -5 -6 6 -1 11 2 17 5 13 3 -3 4 -12 1 -19z m45 -3 c3
-14 1 -25 -3 -25 -5 0 -9 11 -9 25 0 14 2 25 4 25 2 0 6 -11 8 -25z m41 -6 c5
-19 -12 -22 -25 -4 -11 15 -9 22 6 22 8 0 17 -8 19 -18z m44 -16 c-3 -10 -5
-4 -5 12 0 17 2 24 5 18 2 -7 2 -21 0 -30z m116 -4 c-8 -8 -13 -7 -18 2 -5 8
-4 10 3 5 7 -4 12 -2 12 5 0 7 3 9 7 6 4 -4 2 -12 -4 -18z m1115 -64 c1 -36
-1 -65 -5 -65 -5 0 -9 34 -10 76 0 43 2 72 6 65 4 -6 8 -41 9 -76z m-1501 38
c-3 -10 -5 -4 -5 12 0 17 2 24 5 18 2 -7 2 -21 0 -30z m253 17 c0 -11 -7 -20
-15 -20 -18 0 -19 6 -2 25 16 19 17 18 17 -5z m96 -25 c0 -22 -3 -31 -8 -23
-10 16 -10 58 0 58 4 0 7 -16 8 -35z m97 8 c-7 -2 -13 -12 -13 -20 0 -9 -3
-14 -6 -10 -10 10 4 37 18 36 10 0 10 -2 1 -6z m2909 -15 c-6 -6 -15 -8 -19
-4 -4 4 -1 11 7 16 19 12 27 3 12 -12z m-2962 -30 c0 -5 -7 -8 -15 -8 -17 0
-18 2 -9 25 5 13 8 14 15 3 5 -7 9 -16 9 -20z m-390 14 c0 -5 -7 -9 -15 -9 -8
0 -15 4 -15 9 0 4 7 8 15 8 8 0 15 -4 15 -8z m80 -1 c0 -5 -9 -7 -20 -4 -11 3
-20 7 -20 9 0 2 9 4 20 4 11 0 20 -4 20 -9z m120 -26 c0 -5 -5 -3 -10 5 -8 12
-10 12 -10 1 0 -8 -2 -12 -5 -9 -3 3 -2 13 1 22 5 14 9 15 15 4 5 -7 9 -17 9
-23z m2427 3 c-3 -8 -6 -5 -6 6 -1 11 2 17 5 13 3 -3 4 -12 1 -19z m-2410 -30
c-3 -7 -5 -2 -5 12 0 14 2 19 5 13 2 -7 2 -19 0 -25z m-87 -2 c0 -2 -7 -17
-15 -32 l-15 -29 0 33 c0 22 5 32 15 32 8 0 15 -2 15 -4z m140 -7 c0 -5 -4 -7
-10 -4 -6 4 -10 -6 -10 -23 0 -18 -6 -32 -16 -36 -14 -5 -15 -4 -4 9 7 9 10
18 7 22 -8 8 11 43 23 43 6 0 10 -5 10 -11z m90 -19 c0 -13 -6 -20 -17 -19
-11 0 -13 3 -5 6 6 2 12 11 12 19 0 8 2 14 5 14 3 0 5 -9 5 -20z m43 -1 c3
-12 3 -18 0 -15 -4 3 -12 1 -19 -5 -10 -8 -11 -6 -1 15 14 31 13 31 20 5z
m2212 -66 c-3 -25 -9 -42 -12 -39 -3 3 -2 31 2 63 5 32 10 50 13 39 2 -10 1
-38 -3 -63z m-2595 63 c0 -3 -4 -8 -10 -11 -5 -3 -10 -1 -10 4 0 6 5 11 10 11
6 0 10 -2 10 -4z m1480 -22 c0 -8 -4 -14 -10 -14 -5 0 -10 9 -10 21 0 11 5 17
10 14 6 -3 10 -13 10 -21z m2005 -42 c3 -31 10 -82 15 -112 5 -30 11 -75 14
-100 2 -25 8 -53 12 -64 4 -11 2 -21 -7 -27 -21 -13 -27 -11 -40 13 -10 18 -8
24 7 35 24 17 13 26 -18 14 -21 -8 -27 -5 -42 20 -10 16 -19 58 -21 95 -3 37
-7 74 -10 84 -4 11 3 20 21 29 17 7 24 17 20 27 -3 8 -2 13 3 10 5 -3 12 6 15
19 10 40 24 20 31 -43z m-3417 -13 l-3 -44 -5 52 c-3 29 -1 48 3 44 5 -5 7
-28 5 -52z m3075 32 c2 -10 1 -25 -4 -32 -6 -10 -9 -10 -9 -2 0 7 -7 10 -15 7
-8 -4 -15 -1 -15 5 0 6 5 10 11 9 6 -2 14 3 17 11 3 8 0 11 -7 7 -12 -8 -16 6
-5 17 10 9 21 0 27 -22z m-3149 4 c-4 -8 -8 -15 -10 -15 -2 0 -4 7 -4 15 0 8
4 15 10 15 5 0 7 -7 4 -15z m106 -30 c0 -5 -5 -3 -10 5 -5 8 -10 20 -10 25 0
6 5 3 10 -5 5 -8 10 -19 10 -25z m420 16 c0 -12 -20 -36 -20 -24 0 6 -3 19 -6
27 -5 12 -2 15 10 10 9 -3 16 -9 16 -13z m-213 -48 c-3 -10 -5 -2 -5 17 0 19
2 27 5 18 2 -10 2 -26 0 -35z m68 37 c3 -5 1 -10 -4 -10 -6 0 -11 5 -11 10 0
6 2 10 4 10 3 0 8 -4 11 -10z m-15 -32 c0 -19 -16 -5 -17 14 -2 18 0 20 7 8 5
-8 10 -18 10 -22z m100 17 c0 -2 -7 -5 -15 -9 -9 -3 -15 0 -15 9 0 9 6 12 15
9 8 -4 15 -7 15 -9z m1020 5 c0 -5 -2 -10 -4 -10 -3 0 -8 5 -11 10 -3 6 -1 10
4 10 6 0 11 -4 11 -10z m950 -25 c0 -19 -3 -35 -8 -35 -4 0 -7 16 -8 35 0 19
3 35 8 35 4 0 8 -16 8 -35z m-2610 15 c0 -5 -4 -10 -10 -10 -5 0 -10 5 -10 10
0 6 5 10 10 10 6 0 10 -4 10 -10z m127 -37 c-3 -10 -5 -4 -5 12 0 17 2 24 5
18 2 -7 2 -21 0 -30z m467 2 c-4 -8 -7 -15 -9 -15 -2 0 -5 7 -9 15 -3 9 0 15
9 15 9 0 12 -6 9 -15z m1070 0 c3 -8 1 -15 -4 -15 -6 0 -10 7 -10 15 0 8 2 15
4 15 2 0 6 -7 10 -15z m1650 -44 c1 -29 -2 -51 -7 -51 -6 0 -7 3 -4 6 4 4 -1
20 -11 37 -13 22 -14 31 -4 34 6 3 12 12 12 21 0 37 11 0 14 -47z m-2797 2
c-3 -10 -5 -4 -5 12 0 17 2 24 5 18 2 -7 2 -21 0 -30z m3030 8 c10 -15 10 -28
1 -52 -9 -25 -8 -34 0 -37 9 -3 8 -10 -3 -25 -8 -12 -15 -38 -15 -59 0 -21 -4
-38 -9 -38 -18 0 -21 18 -12 59 7 32 6 41 -6 45 -8 4 -13 13 -9 21 3 9 0 15
-9 15 -8 0 -15 -7 -15 -16 0 -14 -3 -14 -15 -4 -23 19 -18 27 20 34 38 8 48
17 39 39 -3 9 -12 13 -22 10 -13 -4 -12 -2 3 10 26 22 38 21 52 -2z m-943 -93
c-6 -106 -21 -172 -25 -113 -4 71 -1 181 6 198 18 43 25 11 19 -85z m-2227 60
c-3 -7 -5 -2 -5 12 0 14 2 19 5 13 2 -7 2 -19 0 -25z m213 22 c0 -5 -5 -10
-11 -10 -5 0 -7 5 -4 10 3 6 8 10 11 10 2 0 4 -4 4 -10z m1067 -12 c-3 -8 -6
-5 -6 6 -1 11 2 17 5 13 3 -3 4 -12 1 -19z m-1227 -18 c0 -5 -7 -7 -15 -4 -8
4 -15 8 -15 10 0 2 7 4 15 4 8 0 15 -4 15 -10z m77 -40 c-2 -29 -17 -24 -17 6
0 14 4 23 9 19 6 -3 9 -14 8 -25z m1156 15 c4 -8 2 -17 -3 -20 -6 -4 -10 3
-10 14 0 25 6 27 13 6z m-1506 -17 c-3 -8 -6 -5 -6 6 -1 11 2 17 5 13 3 -3 4
-12 1 -19z m170 -10 c-3 -7 -5 -2 -5 12 0 14 2 19 5 13 2 -7 2 -19 0 -25z
m596 -15 c-7 -2 -19 -2 -25 0 -7 3 -2 5 12 5 14 0 19 -2 13 -5z m747 -12 c0
-6 -5 -13 -11 -16 -7 -5 -5 -15 6 -31 13 -20 13 -24 1 -24 -14 0 -24 33 -18
63 4 18 22 24 22 8z m1910 -1 c0 -5 -5 -10 -11 -10 -5 0 -7 5 -4 10 3 6 8 10
11 10 2 0 4 -4 4 -10z m-3356 -12 c-3 -4 -9 -8 -15 -8 -5 0 -9 4 -9 8 0 5 7 9
15 9 8 0 12 -4 9 -9z m-219 -28 c3 -5 1 -10 -4 -10 -6 0 -11 5 -11 10 0 6 2
10 4 10 3 0 8 -4 11 -10z m185 6 c0 -3 -4 -8 -10 -11 -5 -3 -10 -1 -10 4 0 6
5 11 10 11 6 0 10 -2 10 -4z m3400 -15 c0 -5 -6 -14 -14 -20 -11 -9 -16 -9
-21 0 -4 6 -1 15 6 20 18 11 29 11 29 0z m-3333 -23 c-3 -8 -6 -5 -6 6 -1 11
2 17 5 13 3 -3 4 -12 1 -19z m623 -18 c0 -11 -4 -20 -9 -20 -5 0 -7 9 -4 20 3
11 7 20 9 20 2 0 4 -9 4 -20z m786 -27 c-10 -10 -19 5 -10 18 6 11 8 11 12 0
2 -7 1 -15 -2 -18z m1874 13 c0 -3 -4 -8 -10 -11 -5 -3 -10 -1 -10 4 0 6 5 11
10 11 6 0 10 -2 10 -4z m188 -23 c15 -33 15 -43 2 -43 -5 0 -10 9 -10 20 0 13
-7 20 -20 20 -17 0 -19 2 -8 15 18 20 21 19 36 -12z m-2053 -63 c1 -21 -2 -37
-6 -35 -3 3 -7 23 -7 46 -1 52 11 42 13 -11z m1899 35 c3 -9 0 -15 -9 -15 -8
0 -15 7 -15 15 0 8 4 15 9 15 5 0 11 -7 15 -15z m83 -62 c-2 -1 -17 9 -35 23
-33 26 -43 48 -18 38 8 -3 17 0 21 7 5 7 13 -3 21 -27 7 -21 12 -39 11 -41z
m-3420 35 c-3 -8 -6 -5 -6 6 -1 11 2 17 5 13 3 -3 4 -12 1 -19z m3513 -7 c0
-6 -4 -13 -10 -16 -18 -11 -11 -23 10 -18 14 4 20 0 20 -12 0 -9 14 -37 30
-62 36 -53 37 -57 8 -42 -38 19 -99 82 -87 90 8 4 8 12 1 26 -8 14 -8 23 0 31
14 14 28 15 28 3z m-2815 -11 c3 -5 1 -10 -4 -10 -6 0 -11 5 -11 10 0 6 2 10
4 10 3 0 8 -4 11 -10z m38 -15 c-7 -21 -13 -19 -13 6 0 11 4 18 10 14 5 -3 7
-12 3 -20z m-686 -37 c-3 -8 -6 -5 -6 6 -1 11 2 17 5 13 3 -3 4 -12 1 -19z
m640 16 c-3 -3 -12 -4 -19 -1 -8 3 -5 6 6 6 11 1 17 -2 13 -5z m759 -41 c-4
-4 -11 -1 -16 7 -16 25 -11 35 7 17 9 -9 13 -20 9 -24z m4 -44 c0 -6 -4 -7
-10 -4 -5 3 -10 11 -10 16 0 6 5 7 10 4 6 -3 10 -11 10 -16z m4709 -84 c12
-44 31 -103 42 -131 l22 -52 -38 -108 c-21 -60 -39 -110 -40 -112 -2 -2 -11
13 -20 33 -10 19 -20 34 -22 31 -3 -3 16 -44 41 -93 25 -48 64 -126 87 -173
23 -47 58 -107 77 -135 52 -73 101 -183 108 -240 3 -27 10 -52 15 -53 5 -2 14
-13 20 -25 10 -21 10 -21 -5 -3 -18 23 -21 14 -5 -15 5 -11 14 -17 19 -14 6 4
7 -1 3 -11 -5 -13 -3 -15 7 -9 9 6 11 4 5 -5 -5 -8 1 -30 15 -55 25 -46 22
-79 -7 -73 -23 4 -53 -21 -46 -38 3 -8 1 -14 -5 -14 -5 0 -12 11 -14 25 -3 13
-1 22 3 19 5 -3 6 2 3 11 -4 9 -13 14 -20 11 -7 -3 -16 0 -20 6 -4 7 -3 8 4 4
8 -5 12 1 12 16 0 13 4 29 9 37 7 10 4 19 -7 29 -11 9 -12 11 -2 6 12 -7 13
-5 3 8 -7 8 -10 18 -6 21 3 4 2 7 -3 7 -8 0 -14 35 -18 103 -1 25 -2 26 -15
10 -12 -17 -13 -16 -8 6 3 14 0 29 -8 37 -9 10 -11 23 -5 42 7 28 -3 62 -19
62 -4 0 -13 -10 -19 -22 -10 -22 -11 -22 -11 7 -1 49 19 60 41 24 11 -17 21
-29 24 -26 3 3 -25 52 -62 108 -37 56 -93 155 -125 218 -32 64 -58 112 -59
108 0 -4 9 -25 20 -47 31 -62 61 -142 50 -135 -5 3 -10 -2 -10 -12 -1 -10 -8
-29 -16 -43 -10 -16 -13 -18 -8 -5 4 11 9 38 11 60 l3 40 -13 -40 c-8 -23 -19
-50 -26 -60 -11 -18 -12 -17 -8 9 3 17 -1 39 -9 50 -16 26 -13 48 9 70 24 24
21 29 -6 11 -18 -11 -24 -12 -24 -3 0 7 -3 31 -7 52 -7 35 -6 38 8 27 13 -11
14 -9 4 21 -18 54 -60 138 -69 138 -5 0 -9 -13 -9 -29 0 -17 -3 -32 -8 -34 -9
-6 -7 111 2 120 3 3 6 -3 6 -14 0 -11 7 -27 16 -34 9 -7 29 -36 45 -64 33 -57
39 -54 9 5 -24 47 -25 57 -5 40 20 -17 19 -8 -6 37 -21 38 -49 73 -35 43 4 -8
-2 -4 -13 9 -25 27 -28 49 -5 30 10 -8 8 0 -6 24 -12 20 -26 40 -31 43 -5 3
-9 10 -9 16 0 7 5 6 14 -1 12 -10 17 -8 27 11 6 13 34 53 60 89 27 37 49 75
49 85 1 33 17 -4 39 -91z m-3823 27 c-11 -10 -14 3 -7 38 l6 35 3 -33 c2 -19
1 -36 -2 -40z m1347 -18 c9 -4 17 -13 17 -21 0 -11 -7 -9 -30 7 -30 22 -40 37
-17 26 6 -3 20 -9 30 -12z m-2230 -14 c3 -11 1 -18 -4 -14 -5 3 -9 12 -9 20 0
20 7 17 13 -6z m879 -44 c-2 -20 -9 -36 -14 -36 -6 0 -7 7 -4 16 3 9 6 27 6
40 0 14 4 23 8 20 4 -3 6 -21 4 -40z m1428 -13 c0 -13 52 -53 61 -47 13 8 11
-10 -3 -24 -20 -20 1 -26 23 -6 20 18 20 18 14 -9 -4 -16 -3 -27 3 -27 17 0
48 -96 72 -226 18 -97 20 -129 12 -165 -10 -42 -11 -43 -10 -9 0 61 -2 69 -19
74 -14 4 -18 17 -18 51 0 51 -15 59 -30 15 -5 -16 -19 -37 -29 -47 -17 -16
-18 -16 -13 -1 3 9 9 34 13 55 4 21 14 49 22 62 20 30 24 121 5 121 -8 0 -13
-12 -13 -30 0 -16 -5 -30 -11 -30 -6 0 -8 7 -5 17 4 9 -4 32 -19 54 -14 21
-25 43 -25 49 0 5 -4 10 -8 10 -5 0 -5 -21 -1 -47 4 -27 8 -74 8 -106 1 -50
-1 -58 -16 -55 -16 3 -18 15 -16 108 1 73 -3 113 -13 132 -8 15 -14 36 -14 48
0 11 -4 20 -8 20 -6 0 -8 33 -3 59 1 7 41 -37 41 -46z m-3901 -125 c1 -16 -3
-28 -7 -28 -5 0 -9 21 -9 48 -1 33 2 41 7 27 5 -11 9 -32 9 -47z m2471 52 c0
-5 -5 -10 -11 -10 -5 0 -7 5 -4 10 3 6 8 10 11 10 2 0 4 -4 4 -10z m-3 -35 c0
-8 -4 -12 -9 -9 -4 3 -8 9 -8 15 0 5 4 9 8 9 5 0 9 -7 9 -15z m3671 -40 c-3
-3 -9 2 -12 12 -6 14 -5 15 5 6 7 -7 10 -15 7 -18z m-6123 -53 c-8 -8 -25 10
-19 20 4 6 9 5 15 -3 4 -7 6 -15 4 -17z m6097 6 c-7 -7 -12 -8 -12 -2 0 14 12
26 19 19 2 -3 -1 -11 -7 -17z m82 -153 c-4 -8 -7 -15 -9 -15 -2 0 -5 7 -9 15
-3 9 0 15 9 15 9 0 12 -6 9 -15z m189 -274 c70 -107 69 -105 39 -119 -20 -9
-23 -9 -14 0 7 7 12 19 12 27 0 11 -4 10 -20 -4 -21 -19 -21 -19 -17 17 5 44
-7 71 -18 39 -8 -25 -20 -28 -22 -3 -1 9 -4 38 -7 65 -2 26 -3 47 -1 47 2 0
24 -31 48 -69z m-2307 -9 c-13 -12 -17 8 -10 40 l9 33 3 -33 c2 -19 1 -36 -2
-40z m-3159 36 c-3 -8 -6 -5 -6 6 -1 11 2 17 5 13 3 -3 4 -12 1 -19z m-21 -64
c-4 -9 -9 -15 -11 -12 -3 3 -3 13 1 22 4 9 9 15 11 12 3 -3 3 -13 -1 -22z
m739 -53 c-2 -28 -11 -62 -19 -78 l-16 -28 6 30 c4 17 11 38 15 47 5 9 6 30 3
47 -4 19 -2 31 4 31 7 0 9 -19 7 -49z m4194 7 c6 -18 7 -28 2 -23 -10 12 -25
55 -18 55 3 0 10 -15 16 -32z m95 -53 c47 -86 60 -122 28 -72 -10 15 -22 24
-27 20 -4 -5 -5 -2 -1 5 4 6 -1 24 -12 40 -18 26 -45 92 -37 92 2 0 24 -38 49
-85z m-4920 6 c-15 -22 -32 -41 -36 -41 -5 0 -6 -5 -2 -12 5 -7 3 -8 -6 -3
-10 6 -12 4 -7 -9 4 -9 3 -15 -2 -12 -10 6 -53 -87 -49 -106 2 -6 -5 -14 -15
-16 -17 -3 -17 -2 -4 20 9 12 21 43 27 67 6 24 27 60 47 82 20 21 42 48 50 59
27 39 24 13 -3 -29z m284 22 c-9 -10 -22 -31 -31 -48 -8 -16 -25 -41 -36 -54
-12 -13 -21 -30 -21 -37 0 -17 -33 -35 -47 -26 -8 5 -4 15 10 32 17 21 19 21
14 5 l-7 -20 14 20 c8 11 37 50 63 87 26 36 50 64 52 62 2 -2 -3 -12 -11 -21z
m-421 -5 c-3 -8 -6 -5 -6 6 -1 11 2 17 5 13 3 -3 4 -12 1 -19z m4962 -23 c0
-5 -6 -1 -14 9 -8 11 -15 24 -15 30 0 5 7 1 15 -10 8 -10 14 -23 14 -29z
m1070 8 c0 -25 -1 -26 -9 -8 -12 27 -12 35 0 35 6 0 10 -12 9 -27z m-5418 -20
c-8 -15 -10 -15 -11 -2 0 17 10 32 18 25 2 -3 -1 -13 -7 -23z m-21 -18 c0 -8
-9 -24 -20 -35 -11 -11 -20 -27 -20 -35 0 -15 -21 -21 -33 -9 -9 10 4 34 19
34 8 0 14 9 14 21 0 11 5 17 10 14 6 -3 10 1 10 9 0 9 5 16 10 16 6 0 10 -7
10 -15z m-280 -5 c0 -5 -5 -10 -11 -10 -5 0 -7 5 -4 10 3 6 8 10 11 10 2 0 4
-4 4 -10z m4650 -10 c0 -5 -2 -10 -4 -10 -3 0 -8 5 -11 10 -3 6 -1 10 4 10 6
0 11 -4 11 -10z m631 -13 c-10 -9 -11 -8 -5 6 3 10 9 15 12 12 3 -3 0 -11 -7
-18z m-5591 -12 c0 -8 -4 -15 -10 -15 -5 0 -10 7 -10 15 0 8 5 15 10 15 6 0
10 -7 10 -15z m733 -23 c-3 -12 -9 -22 -14 -22 -12 0 -11 7 2 32 13 25 20 19
12 -10z m-733 -66 c-37 -81 -38 -53 -2 44 13 35 17 40 20 23 2 -12 -6 -42 -18
-67z m1104 24 c4 -25 3 -31 -4 -20 -5 8 -10 26 -10 39 0 32 6 24 14 -19z
m-164 20 c0 -5 -8 -10 -17 -10 -15 0 -16 2 -3 10 19 12 20 12 20 0z m4006 -14
c0 -14 -5 -21 -9 -17 -4 4 -5 15 -1 24 9 24 12 21 10 -7z m-4416 -16 c0 -5 -2
-10 -4 -10 -3 0 -8 5 -11 10 -3 6 -1 10 4 10 6 0 11 -4 11 -10z m4500 -20 c0
-5 -2 -10 -4 -10 -3 0 -8 5 -11 10 -3 6 -1 10 4 10 6 0 11 -4 11 -10z m-4540
-14 c0 -2 -7 -9 -15 -16 -12 -10 -15 -10 -15 4 0 9 7 16 15 16 8 0 15 -2 15
-4z m4574 -42 c10 -38 0 -41 -12 -5 -6 17 -7 31 -3 31 5 0 12 -12 15 -26z
m182 -336 c8 -16 12 -28 10 -28 -3 0 -13 14 -21 31 -19 35 -33 33 -15 -3 11
-22 11 -22 -5 -3 -26 32 -39 59 -24 50 9 -6 11 -3 6 11 -9 24 27 -19 49 -58z
m-3919 26 c-16 -9 -31 -13 -34 -10 -3 3 5 10 18 15 37 15 47 12 16 -5z m3921
-79 c-3 -3 -9 2 -12 12 -6 14 -5 15 5 6 7 -7 10 -15 7 -18z m-1763 -296 c-16
-5 -38 -7 -48 -5 -30 7 -47 -4 -47 -31 0 -13 -4 -22 -9 -19 -5 3 -11 -1 -15
-9 -4 -10 1 -14 16 -12 13 1 22 -4 24 -17 2 -14 0 -16 -9 -7 -6 6 -54 12 -116
13 l-106 2 85 3 c88 4 113 14 92 35 -9 9 -12 9 -12 0 0 -14 -47 -16 -52 -2 -1
5 -28 13 -58 17 -63 8 -993 6 -1057 -2 -24 -4 -43 -2 -43 3 0 5 258 14 578 21
317 7 579 15 581 17 2 2 54 4 115 3 84 -1 104 -3 81 -10z m-1545 -39 c-293
-12 -986 -23 -980 -17 3 3 163 9 355 13 193 3 352 8 354 10 2 2 106 3 230 2
l226 -1 -185 -7z m-1005 -20 c-4 -6 -45 -9 -98 -8 l-92 2 95 6 c52 3 96 7 98
8 2 1 0 -2 -3 -8z m2202 -26 c-3 -3 -12 -4 -19 -1 -8 3 -5 6 6 6 11 1 17 -2
13 -5z m-300 -10 c-3 -3 -12 -4 -19 -1 -8 3 -5 6 6 6 11 1 17 -2 13 -5z m50 0
c-3 -3 -12 -4 -19 -1 -8 3 -5 6 6 6 11 1 17 -2 13 -5z m-924 -21 c-7 -2 -19
-2 -25 0 -7 3 -2 5 12 5 14 0 19 -2 13 -5z m60 0 c-7 -2 -21 -2 -30 0 -10 3
-4 5 12 5 17 0 24 -2 18 -5z m1417 -44 c0 -5 -3 -8 -7 -7 -5 1 -123 -1 -263
-5 -140 -4 -410 -9 -600 -12 -190 -3 -549 -10 -799 -15 -250 -6 -456 -8 -458
-6 -6 6 330 16 877 26 1072 19 1195 22 1203 30 11 10 47 1 47 -11z m-2337
-126 c-62 -2 -164 -2 -225 0 -62 1 -12 3 112 3 124 0 174 -2 113 -3z m354 -19
c-3 -3 -12 -4 -19 -1 -8 3 -5 6 6 6 11 1 17 -2 13 -5z m4539 -70 c-19 -19 -21
-11 -4 16 7 11 14 16 16 10 2 -5 -4 -17 -12 -26z m21 -40 c-3 -3 -12 -4 -19
-1 -8 3 -5 6 6 6 11 1 17 -2 13 -5z m3 -21 c0 -1 -8 -7 -18 -12 -13 -7 -19 -6
-19 2 0 7 9 13 19 13 10 0 18 -1 18 -3z m-20 -43 c0 -5 -2 -10 -4 -10 -3 0 -8
5 -11 10 -3 6 -1 10 4 10 6 0 11 -4 11 -10z"/>
<path d="M15527 4323 c-13 -12 -7 -25 6 -14 8 6 18 7 22 3 5 -4 5 -1 1 6 -8
13 -19 16 -29 5z"/>
<path d="M15687 3998 c143 -429 134 -390 139 -638 5 -330 15 -434 41 -444 14
-6 14 -4 2 11 -13 15 -12 16 9 11 12 -4 22 -2 22 4 0 6 7 7 16 4 8 -3 13 -2 9
3 -3 5 1 11 7 14 10 3 10 7 -1 20 -10 13 -10 17 -1 17 8 0 9 6 5 18 -4 9 -7
24 -8 32 0 8 -5 21 -11 29 -8 11 -8 13 2 7 7 -4 12 -2 12 4 0 6 5 8 12 4 8 -5
9 -2 5 9 -4 12 -1 17 11 18 10 0 12 3 5 6 -9 3 -10 10 -4 21 14 26 21 82 10
82 -5 0 -9 5 -9 11 0 5 5 7 10 4 6 -3 10 -1 10 4 0 6 -4 11 -9 11 -4 0 3 22
15 49 26 53 31 115 19 191 -4 25 -8 67 -8 93 0 43 -2 48 -19 44 -15 -4 -18 -1
-12 15 4 13 2 18 -4 14 -13 -8 -26 49 -16 66 4 7 4 10 -1 6 -7 -7 -35 14 -35
26 0 4 12 4 28 1 15 -3 22 -3 15 1 -7 3 -9 13 -6 22 4 15 3 15 -6 2 -6 -8 -11
-13 -12 -10 0 3 -2 13 -4 23 -2 9 1 15 6 11 14 -8 10 48 -6 79 -8 15 -11 25
-6 23 4 -3 -3 16 -15 42 -13 26 -26 61 -29 77 -6 30 -6 30 10 -4 8 -19 18 -31
21 -28 3 3 0 15 -6 27 -9 17 -9 24 -1 30 9 5 9 14 0 36 -7 16 -13 31 -14 34
-10 29 -20 40 -31 36 -7 -3 -11 0 -8 7 4 13 -67 97 -82 97 -5 0 -14 -10 -19
-22 -14 -31 -64 -38 -72 -9 -4 16 -48 41 -73 41 -4 0 35 -127 87 -282z m253
-329 c0 -12 -4 -17 -11 -14 -6 4 -8 10 -5 13 3 3 -2 14 -11 25 -17 19 -17 20
5 8 12 -6 22 -21 22 -32z"/>
<path d="M15935 3070 c3 -5 8 -10 11 -10 2 0 4 5 4 10 0 6 -5 10 -11 10 -5 0
-7 -4 -4 -10z"/>
<path d="M15887 2840 c9 -22 18 -39 19 -37 7 6 -17 77 -26 77 -4 0 -1 -18 7
-40z"/>
<path d="M15700 2040 c0 -5 5 -10 10 -10 6 0 10 5 10 10 0 6 -4 10 -10 10 -5
0 -10 -4 -10 -10z"/>
<path d="M13647 2610 c-3 -11 -1 -20 4 -20 5 0 9 9 9 20 0 11 -2 20 -4 20 -2
0 -6 -9 -9 -20z"/>
<path d="M13633 2565 c-3 -9 -3 -18 -1 -21 3 -3 8 4 11 16 6 23 -1 27 -10 5z"/>
<path d="M13551 2324 c-14 -49 -7 -56 9 -9 7 20 10 39 7 42 -3 3 -10 -12 -16
-33z"/>
<path d="M8971 5393 c-1 -17 16 -25 25 -12 4 7 3 9 -4 5 -5 -3 -13 0 -15 6 -4
9 -6 10 -6 1z"/>
<path d="M9006 5288 c3 -5 10 -6 15 -3 13 9 11 12 -6 12 -8 0 -12 -4 -9 -9z"/>
<path d="M8991 5184 c0 -11 3 -14 6 -6 3 7 2 16 -1 19 -3 4 -6 -2 -5 -13z"/>
<path d="M9011 5184 c0 -11 3 -14 6 -6 3 7 2 16 -1 19 -3 4 -6 -2 -5 -13z"/>
<path d="M9035 5170 c-3 -5 -2 -10 4 -10 5 0 13 5 16 10 3 6 2 10 -4 10 -5 0
-13 -4 -16 -10z"/>
<path d="M9135 5310 c3 -5 8 -10 11 -10 2 0 4 5 4 10 0 6 -5 10 -11 10 -5 0
-7 -4 -4 -10z"/>
<path d="M12350 4600 c0 -5 5 -10 10 -10 6 0 10 5 10 10 0 6 -4 10 -10 10 -5
0 -10 -4 -10 -10z"/>
<path d="M12410 4400 c0 -5 5 -10 10 -10 6 0 10 5 10 10 0 6 -4 10 -10 10 -5
0 -10 -4 -10 -10z"/>
<path d="M15340 3191 c0 -6 4 -13 10 -16 6 -3 7 1 4 9 -7 18 -14 21 -14 7z"/>
<path d="M15325 3130 c3 -5 8 -10 11 -10 2 0 4 5 4 10 0 6 -5 10 -11 10 -5 0
-7 -4 -4 -10z"/>
<path d="M15407 2880 c-14 -17 -15 -20 -2 -20 9 0 18 7 22 15 9 24 -1 27 -20
5z"/>
<path d="M15440 2881 c0 -5 7 -12 16 -15 14 -5 15 -4 4 9 -14 17 -20 19 -20 6z"/>
<path d="M15427 2853 c-4 -3 -7 -11 -7 -17 0 -6 5 -5 12 2 6 6 9 14 7 17 -3 3
-9 2 -12 -2z"/>
<path d="M15471 2834 c0 -11 3 -14 6 -6 3 7 2 16 -1 19 -3 4 -6 -2 -5 -13z"/>
<path d="M12810 3830 c0 -5 6 -10 14 -10 8 0 18 5 21 10 3 6 -3 10 -14 10 -12
0 -21 -4 -21 -10z"/>
</g>
</svg>
